<svg xmlns="http://www.w3.org/2000/svg" viewBox="0 0 160 96" role="img" aria-labelledby="title desc">
  <title id="title">노란 물고기</title>
  <desc id="desc">오른쪽을 향해 헤엄치는 둥글고 매끈한 노란 물고기 본체</desc>
  <defs>
    <linearGradient id="body" x1="0" y1="0" x2="1" y2="1">
      <stop offset="0" stop-color="#FFE88A"/>
      <stop offset="0.55" stop-color="#FFC53D"/>
      <stop offset="1" stop-color="#E99A13"/>
    </linearGradient>
    <linearGradient id="tail" x1="0" y1="0" x2="1" y2="1">
      <stop offset="0" stop-color="#FFD760"/>
      <stop offset="1" stop-color="#F2A61C"/>
    </linearGradient>
  </defs>
  <g fill="none" fill-rule="evenodd">
    <path fill="url(#tail)" d="M38 48C26 31 14 23 4 22c1 12 7 21 18 27C11 55 5 64 4 76c11-1 23-9 34-26v-2Z"/>
    <path fill="#F4B326" d="M67 23C79 8 94 5 105 8c-4 10-13 18-27 23l-11-8Z"/>
    <path fill="#EFA91F" d="M71 72c11 11 23 15 35 13-4-10-12-18-25-23l-10 10Z"/>
    <path fill="url(#body)" d="M35 48C47 18 83 10 119 20c18 5 31 15 38 28-7 13-20 23-38 28-36 10-72 2-84-28Z"/>
    <path fill="#FFFFFF" fill-opacity=".22" d="M51 35c22-15 58-15 84-2-24-8-54-6-77 6l-7-4Z"/>
    <path fill="#D98910" fill-opacity=".45" d="M51 61c21 13 51 16 79 7-24 13-58 13-80-3l1-4Z"/>
    <circle cx="127" cy="42" r="11" fill="#FFFFFF"/>
    <circle cx="130" cy="42" r="6.5" fill="#2B2415"/>
    <circle cx="132" cy="39.5" r="2" fill="#FFFFFF"/>
    <path stroke="#C97B0E" stroke-linecap="round" stroke-width="3" d="M135 58c5-1 8-3 10-6"/>
  </g>
</svg>
