<svg width="332" height="220" viewBox="0 0 332 220" fill="none" xmlns="http://www.w3.org/2000/svg">
<path d="M90.8771 88.4031C90.8771 115.327 114.399 134.392 138.35 141.95C162.03 149.422 185.925 149.645 208.12 137.314C224.03 128.475 238.695 112.38 243.924 94.7168C249.408 76.1935 244.561 55.9861 232.176 41.4102C217.018 23.5716 195.914 17.2292 172.875 18.0736C130.964 19.6095 91.479 47.7931 88 91.2803" stroke="black" stroke-width="7" stroke-linecap="round"/>
<path d="M189.601 101.674C190.02 99.7876 191.89 98.598 193.776 99.017C195.663 99.4363 196.854 101.306 196.435 103.193C195.749 106.278 194.608 110.829 192.522 114.748C190.463 118.615 187.015 122.699 181.424 123.185C175.826 123.672 171.625 121.89 168.147 119.224C165.806 117.43 163.614 115.056 161.611 112.887C160.883 112.098 160.179 111.336 159.503 110.639C158.157 109.252 158.19 107.036 159.577 105.69C160.964 104.344 163.18 104.377 164.526 105.764C165.501 106.768 166.373 107.713 167.19 108.598C169.016 110.577 170.571 112.263 172.405 113.668C174.774 115.483 177.282 116.518 180.818 116.21C182.884 116.031 184.706 114.532 186.343 111.458C187.951 108.437 188.931 104.688 189.601 101.674ZM134.208 65.9193C134.863 64.1007 136.868 63.1572 138.687 63.8119C142.342 65.1279 145.919 66.1212 149.738 67.182C150.399 67.3654 151.067 67.5502 151.743 67.7396C151.783 67.7508 151.823 67.7631 151.865 67.7748C153.064 68.1099 155.155 68.6941 157.116 69.5365C158.135 69.9738 159.235 70.5289 160.213 71.2299C161.156 71.9056 162.256 72.9085 162.89 74.3353C163.653 76.0537 163.351 77.734 162.718 79.0033C162.134 80.1737 161.225 81.1223 160.378 81.8549C158.665 83.3361 156.307 84.6844 154.061 85.8109C151.761 86.9644 149.339 88.0025 147.358 88.8168C146.403 89.2089 145.6 89.5306 144.951 89.7904C144.167 90.1046 143.607 90.3284 143.275 90.4789C141.516 91.2787 139.441 90.501 138.641 88.7416C137.841 86.9819 138.619 84.9067 140.379 84.1068C140.83 83.9021 141.657 83.5689 142.638 83.1752C143.28 82.9175 143.987 82.6338 144.696 82.3422C146.618 81.5526 148.853 80.5918 150.922 79.5541C152.98 78.5216 154.662 77.5167 155.705 76.641C155.339 76.4241 154.886 76.1975 154.355 75.9691C152.827 75.3132 151.113 74.8324 149.875 74.4857L149.856 74.4809C149.207 74.2994 148.558 74.1194 147.907 73.9389C144.095 72.8808 140.238 71.8099 136.316 70.3978C134.497 69.7431 133.553 67.7381 134.208 65.9193ZM203.154 60.7152C204.692 59.5444 206.889 59.8422 208.06 61.3803C209.23 62.9183 208.932 65.1138 207.395 66.2846C207.139 66.479 206.534 66.8914 205.774 67.4096C205.177 67.8162 204.484 68.2878 203.789 68.7709C202.066 69.9697 199.983 71.469 198.06 73.0219C196.128 74.5821 194.541 76.052 193.613 77.2289C193.867 77.325 194.154 77.4189 194.475 77.5062C195.651 77.8264 196.971 77.9914 198.024 78.0756C203.606 78.5222 209.039 78.7455 214.648 78.7455C216.58 78.7456 218.147 80.3127 218.148 82.2455C218.148 84.1785 216.581 85.7455 214.648 85.7455C208.848 85.7455 203.228 85.5151 197.465 85.0541C196.217 84.9543 194.411 84.7432 192.637 84.2602C190.996 83.8135 188.734 82.9687 187.222 81.182C185.897 79.6164 185.854 77.768 186.236 76.3568C186.585 75.0691 187.319 73.9234 188.024 73.0131C189.461 71.1551 191.598 69.2427 193.662 67.5756C195.773 65.8709 198.011 64.264 199.793 63.0248C200.654 62.4257 201.419 61.9057 202.012 61.5023L202.077 61.4574C202.381 61.2505 202.63 61.0819 202.826 60.9467C202.924 60.8795 203.001 60.8253 203.062 60.7826C203.091 60.7615 203.114 60.7442 203.131 60.7318C203.145 60.7215 203.153 60.7165 203.154 60.7152Z" fill="black"/>
<g transform="translate(0 -5) rotate(6 121 200)">
<path d="M121.221 199.84C118.108 211.256 97.4943 204.313 90.6756 199.974C67.9436 185.508 62.3612 159.074 67.8564 134.346" stroke="black" stroke-width="7" stroke-linecap="round"/>
<path d="M67.0477 132.729C70.9524 129.605 76.726 130.969 79.9846 126.081C86.0634 116.963 68.1002 117.376 63.8135 118.984" stroke="black" stroke-width="7" stroke-linecap="round"/>
<path d="M59.7709 115.75C63.4608 117.364 55.1053 104.9 54.111 103.621C51.095 99.7437 41.9311 89.3069 36.7719 95.9401C32.8413 100.994 37.1081 111.05 37.8949 116.558C38.3424 119.691 38.9975 118.683 37.1762 116.558C34.8964 113.899 32.5263 112.666 29.1356 111.348C23.8452 109.29 16.9174 110.438 16.9174 117.547C16.9174 120.802 19.1249 124.321 20.9601 126.89C21.3596 127.449 26.5502 132.44 26.4404 132.55C26.286 132.704 22.4876 130.342 21.7687 130.304C19.6123 130.19 17.2705 132.561 16.2885 134.347C11.9368 142.259 24.4111 143.591 29.0457 142.432" stroke="black" stroke-width="7" stroke-linecap="round"/>
</g>
<g transform="translate(-5 -7) rotate(2 251 183)">
<path d="M251.399 182.86C266.91 178.313 279.888 162.09 285.403 147.328C293.193 126.479 296.455 100.749 286.167 80.1731" stroke="black" stroke-width="7" stroke-linecap="round"/>
<path d="M283.741 79.3647C281.532 84.183 269.69 82.232 266.761 78.4663C261.802 72.0905 270.019 69.0106 274.847 68.0449" stroke="black" stroke-width="7" stroke-linecap="round"/>
<path d="M277.273 69.662C276.419 60.2734 269.207 47.9039 277.632 39.8801C285.642 32.2512 293.35 55.7608 295.869 59.9593" stroke="black" stroke-width="7" stroke-linecap="round"/>
<path d="M293.444 61.5765C293.444 55.9434 298.664 47.0225 305.123 47.0225C311.595 47.0225 310.515 58.0755 312.849 61.5765" stroke="black" stroke-width="7" stroke-linecap="round"/>
<path d="M313.657 61.5762C311.622 61.3218 315.393 59.5266 315.903 59.3303C318.413 58.3651 321.042 57.968 323.764 58.3869C331.634 59.5977 325.209 71.0467 322.552 73.7046" stroke="black" stroke-width="7" stroke-linecap="round"/>
</g>
</svg>
