<svg width="210" height="190" viewBox="0 0 210 190" fill="none" xmlns="http://www.w3.org/2000/svg">
<path fill-rule="evenodd" clip-rule="evenodd" d="M83.2597 21.3834C58.8505 25.4244 36.4565 38.6064 26.2853 63.601C17.8804 84.2553 17.5004 106.99 27.6088 127.224C37.0373 146.097 55.0994 157.996 74.2426 163.9C109.589 174.803 150.812 163.845 172.593 132.153C173.688 130.56 173.284 128.381 171.691 127.286C170.098 126.191 167.919 126.595 166.824 128.188C147.017 157.008 109.153 167.343 76.3058 157.211C58.3765 151.681 42.1951 140.758 33.8709 124.096C24.7838 105.906 25.0139 85.2969 32.769 66.2395C41.7781 44.1007 61.6755 32.052 84.403 28.2894C107.191 24.5169 132.35 29.1932 150.903 40.0546C169.799 51.1172 179.449 70.2366 182.244 92.152C183.352 100.844 183.443 109.185 181.138 117.263C178.124 127.822 173.306 134.378 165.159 141.855C163.735 143.162 163.641 145.376 164.948 146.8C166.255 148.225 168.469 148.319 169.893 147.012C178.721 138.91 184.412 131.297 187.869 119.184C190.539 109.826 190.356 100.425 189.188 91.2664C186.205 67.8764 175.731 46.4782 154.44 34.0137C134.431 22.2998 107.608 17.3525 83.2597 21.3834Z" fill="black"/>
<path d="M86.5702 57.9926C87.6573 57.594 88.8092 57.5268 89.9941 57.7807C91.203 58.0397 92.2003 58.6306 92.829 59.0033C92.8544 59.0183 92.8791 59.033 92.9032 59.0473C93.6562 59.4927 93.9416 59.6346 94.1835 59.683C95.5482 59.956 96.433 61.2841 96.1601 62.6488C95.887 64.0132 94.5597 64.8981 93.1952 64.6254C92.0321 64.3928 91.0475 63.8074 90.4423 63.4477C90.406 63.4261 90.3713 63.405 90.3378 63.3852C89.6153 62.9578 89.2693 62.7793 88.9384 62.7084C88.6204 62.6403 88.4405 62.6756 88.3056 62.725C88.1391 62.786 87.8821 62.9316 87.5204 63.2934C86.9846 63.8292 86.3957 64.3865 85.7646 64.9242C86.1038 65.8043 86.338 66.6773 86.5273 67.4789C86.6452 67.9783 86.7377 68.4059 86.8241 68.8061C86.9441 69.3614 87.0527 69.8646 87.203 70.4359C87.6166 72.0075 88.0907 73.4967 88.5859 75.0502C88.8836 75.9842 89.1892 76.9416 89.4931 77.9545C89.893 79.2875 89.1366 80.6932 87.8036 81.0932C86.4706 81.4931 85.0659 80.7358 84.6659 79.4027C84.4153 78.5672 84.1346 77.6852 83.8466 76.7797C83.3204 75.125 82.7691 73.3914 82.329 71.7191C82.1624 71.0859 82.0002 70.3437 81.8544 69.6762C81.7711 69.2945 81.6926 68.9372 81.622 68.6381C81.5368 68.2773 81.4463 67.94 81.3534 67.6215C81.0576 67.7233 80.7585 67.8103 80.456 67.8773C78.9722 68.2059 77.3695 68.097 75.8447 67.2533C74.372 66.4384 73.2133 65.0719 72.2929 63.3334C71.6418 62.1034 72.1117 60.5783 73.3417 59.9271C74.5717 59.2761 76.0968 59.745 76.748 60.975C77.3807 62.1702 77.9396 62.652 78.2851 62.8432C78.5784 63.0054 78.8949 63.0608 79.3661 62.9564C80.5443 62.6955 82.1222 61.5646 83.957 59.7299C84.6588 59.0281 85.5147 58.3796 86.5702 57.9926ZM126.017 52.7504C129.388 51.2333 132.777 52.3657 134.984 53.1029C135.036 53.1201 135.087 53.137 135.137 53.1537C136.457 53.5938 137.171 55.0209 136.73 56.3412C136.29 57.6615 134.863 58.3751 133.543 57.935C131.018 57.0932 129.469 56.724 128.085 57.3471C127.334 57.685 126.622 58.2016 125.768 58.9105C125.579 59.0668 125.375 59.2404 125.159 59.4242C124.484 59.9988 123.69 60.6757 122.878 61.2445C122.714 61.3591 122.547 61.4651 122.38 61.5658C122.638 62.3154 122.84 63.0558 123.006 63.7777C123.199 64.6195 123.352 65.4604 123.494 66.2514C123.505 66.3131 123.516 66.3748 123.527 66.4359C123.66 67.1748 123.784 67.8708 123.934 68.5668C124.11 69.3909 124.341 70.2003 124.598 71.102C124.654 71.2995 124.711 71.5018 124.769 71.7094C125.082 72.8175 125.413 74.0543 125.598 75.348C125.794 76.7257 124.837 78.0026 123.46 78.1996C122.082 78.3964 120.805 77.4387 120.608 76.0609C120.474 75.1239 120.225 74.163 119.919 73.0775C119.869 72.902 119.818 72.7209 119.766 72.5365C119.507 71.6302 119.22 70.6269 119.005 69.6225C118.837 68.8388 118.698 68.0611 118.568 67.3373C118.557 67.2716 118.545 67.2058 118.533 67.141C118.39 66.3455 118.256 65.6141 118.094 64.9047C117.937 64.2222 117.758 63.5854 117.537 62.9828C116.476 63.0658 115.482 63.0435 114.648 63.0238C114.607 63.0229 114.566 63.0218 114.525 63.0209C113.226 62.9907 112.18 62.3895 111.672 62.0971C111.653 62.0862 111.635 62.0758 111.617 62.0658C111.035 61.7321 110.913 61.6861 110.914 61.683L110.661 61.64C109.419 61.3667 108.558 60.1945 108.701 58.9018C108.855 57.5186 110.1 56.5217 111.483 56.6752C112.145 56.7487 112.701 56.9586 113.118 57.1527C113.469 57.3157 113.808 57.5116 114.038 57.6439C114.068 57.6612 114.097 57.6779 114.123 57.6928C114.508 57.9135 114.656 57.9714 114.684 57.9838C115.612 58.0049 116.423 58.0059 117.139 57.9545C117.243 57.8623 117.355 57.7756 117.477 57.6996C118.099 57.3138 118.823 57.2342 119.476 57.4145C119.655 57.3272 119.825 57.229 119.987 57.1156C120.589 56.6947 121.114 56.2471 121.732 55.7211C121.985 55.506 122.254 55.2776 122.549 55.0326C123.488 54.2532 124.625 53.3767 126.017 52.7504Z" fill="black"/>
<path fill-rule="evenodd" clip-rule="evenodd" d="M119.965 112.005C118.705 113.919 117.54 116.273 117.318 116.773C116.558 118.483 115.359 120.586 113.345 121.497C112.209 122.011 110.962 122.078 109.731 121.679C108.574 121.304 107.552 120.56 106.642 119.65C105.648 118.656 104.703 117.478 103.901 116.223C103.576 117.024 103.286 117.815 102.981 118.648C102.719 119.363 102.446 120.109 102.129 120.918C101.652 122.136 100.831 123.191 99.5799 123.758C98.3821 124.301 97.1813 124.219 96.2687 123.999C94.5376 123.582 92.929 122.447 92.0062 121.741C90.8128 120.829 89.6919 119.578 88.7689 118.549C88.568 118.325 88.3765 118.111 88.1957 117.913C87.6993 117.372 87.2528 116.913 86.8365 116.535C86.5612 117.1 86.2656 117.775 85.9687 118.513C85.4882 119.706 85.0435 120.965 84.7179 122.004C84.5548 122.523 84.4279 122.968 84.3425 123.308C84.2655 123.615 84.2474 123.741 84.2453 123.741C84.2447 123.741 84.2456 123.728 84.2468 123.704C84.1744 125.152 82.9419 126.267 81.494 126.195C80.046 126.122 78.9309 124.89 79.0033 123.442C79.0268 122.972 79.1489 122.435 79.2503 122.031C79.3679 121.562 79.5258 121.015 79.7085 120.432C80.0744 119.266 80.5653 117.877 81.0985 116.552C81.6221 115.252 82.2273 113.91 82.8329 112.895C83.1211 112.411 83.5052 111.836 83.9827 111.379C84.2646 111.11 85.6606 109.849 87.463 110.669C89.4008 111.549 90.9166 113.111 92.067 114.367C92.3397 114.665 92.5933 114.947 92.8329 115.213C93.7305 116.209 94.4308 116.986 95.1953 117.571C95.5971 117.878 96.0333 118.185 96.466 118.436C96.8045 118.632 97.0865 118.762 97.3053 118.838C97.5138 118.299 97.7318 117.706 97.9589 117.089C98.4198 115.837 98.9177 114.485 99.4471 113.274L99.4468 113.275C99.4467 113.275 99.4521 113.263 99.4627 113.234C99.4745 113.202 99.4897 113.158 99.5086 113.1C99.5474 112.982 99.5912 112.837 99.6453 112.654C99.6623 112.597 99.6804 112.535 99.6995 112.47C99.793 112.151 99.9097 111.753 100.037 111.369C100.19 110.91 100.395 110.353 100.671 109.833C100.912 109.38 101.391 108.591 102.255 108.083C103.447 107.382 104.597 107.786 105.151 108.129C105.636 108.429 105.942 108.813 106.081 108.999C106.394 109.417 106.637 109.904 106.791 110.234C106.964 110.603 107.114 110.972 107.221 111.243C107.373 111.631 107.372 111.638 107.367 111.627C108.038 113.143 109.152 114.735 110.354 115.938C110.81 116.394 111.116 116.58 111.267 116.651C111.34 116.59 111.459 116.474 111.614 116.268C111.892 115.901 112.199 115.365 112.521 114.641C112.833 113.939 114.13 111.32 115.581 109.118C116.277 108.06 117.164 106.854 118.12 106.063C118.569 105.691 119.359 105.13 120.4 105.019C120.977 104.958 121.613 105.039 122.223 105.342C122.819 105.638 123.244 106.073 123.536 106.498C124.14 107.377 124.757 108.187 125.421 109.058C125.863 109.638 126.326 110.245 126.82 110.917C127.97 112.485 129.152 114.244 129.982 116.182C130.553 117.515 129.936 119.058 128.603 119.629C127.271 120.2 125.728 119.583 125.156 118.25C124.566 116.873 123.669 115.499 122.586 114.022C122.219 113.522 121.806 112.979 121.379 112.418C121.087 112.032 120.787 111.638 120.491 111.244C120.328 111.468 120.152 111.722 119.965 112.005ZM121.538 110.055C121.538 110.056 121.528 110.063 121.508 110.075C121.528 110.06 121.538 110.054 121.538 110.055ZM97.6355 118.918C97.6356 118.918 97.6334 118.918 97.6288 118.918C97.6332 118.918 97.6355 118.918 97.6355 118.918ZM105.329 112.256C105.342 112.234 105.349 112.225 105.35 112.226C105.35 112.226 105.343 112.238 105.329 112.256Z" fill="black"/>
</svg>
