<svg width="220" height="180" viewBox="0 0 220 180" fill="none" xmlns="http://www.w3.org/2000/svg">
<path d="M13.4502 13.4229C14.3979 11.7383 16.5321 11.1412 18.2168 12.0889C18.7677 12.3988 19.3246 12.7727 19.8379 13.3301C20.2 13.7234 20.5044 14.1905 20.6416 14.4014C20.6607 14.4306 20.6762 14.4552 20.6885 14.4736C21.7607 16.082 21.3261 18.2549 19.7178 19.3271C18.1094 20.3992 15.9364 19.9647 14.8643 18.3564C14.8346 18.312 14.8069 18.2697 14.7822 18.2324L14.7354 18.1611C13.0887 17.1997 12.5119 15.0909 13.4502 13.4229ZM63.6113 11.9219C65.3879 11.1605 67.4454 11.9834 68.207 13.7598C68.9685 15.5365 68.1458 17.595 66.3691 18.3564L66.3535 18.3623C65.3119 18.8087 64.1696 19.2989 62.9453 19.7227C61.1187 20.355 59.1255 19.3862 58.4932 17.5596C57.861 15.733 58.8287 13.7397 60.6553 13.1074C61.612 12.7763 62.5355 12.3829 63.6113 11.9219ZM37.7158 12.7471C38.5299 11.3376 40.2482 10.6459 41.8525 11.1807C43.686 11.7921 44.6765 13.7738 44.0654 15.6074C44.063 15.6147 44.0591 15.6277 44.0537 15.6455C43.9871 15.8647 43.6919 16.8369 43.0596 17.6074C42.1013 18.775 40.8356 19.147 39.8555 19.2559C37.9344 19.4691 36.2037 18.0841 35.9902 16.1631C35.8323 14.74 36.5516 13.4217 37.7158 12.7471Z" fill="black"/>
<path d="M65.9695 108.197C68.4872 125.942 72.6921 139.792 86.9952 150.911C100.684 161.553 116.027 164.994 133.137 163.762C171.89 160.97 201.959 124.552 199.013 86.2291C195.849 45.0799 148.326 21.658 111.322 32.7459C92.229 38.4669 74.0336 52.1642 64.1755 69.5739C54.7371 86.2424 55.7565 105.765 62.0945 123.057" stroke="black" stroke-width="7" stroke-linecap="round"/>
<path d="M128.813 112.217C124.75 106.241 122.326 97.0798 126.464 90.5001C130.777 83.6445 139.663 95.9229 141.757 99.273" stroke="black" stroke-width="7" stroke-linecap="round"/>
<path d="M142.188 98.8415C142.188 96.0922 143.359 92.8338 144.442 90.3083C145.637 87.5193 147.512 83.056 150.602 81.847C153.314 80.7857 155.758 82.8631 157.289 84.8193C159.684 87.8786 159.878 90.3818 159.878 94.0955" stroke="black" stroke-width="7" stroke-linecap="round"/>
<path d="M161.604 95.8213C158.214 96.1603 163.047 95.1047 164.097 94.9345C168.331 94.2478 173.751 92.6051 177.999 94.0955C182.184 95.5638 183.443 99.393 181.667 103.132C179.604 107.475 175.978 109.219 171.527 110.491" stroke="black" stroke-width="7" stroke-linecap="round"/>
<path d="M128.813 110.491C128.902 112.084 129.919 113.183 130.923 114.35C135.81 120.03 140.454 125.9 145.161 131.728C154.846 143.721 163.753 156.84 174.979 167.443" stroke="black" stroke-width="7" stroke-linecap="round"/>
<path d="M117.314 137.465C126.661 137.257 136.595 136.028 145.865 134.87" stroke="black" stroke-width="7" stroke-linecap="round"/>
<path d="M92.1777 103.136C97.4173 102.949 102.535 101.649 107.789 101.649" stroke="black" stroke-width="7" stroke-linecap="round"/>
</svg>
