<svg width="210" height="190" viewBox="0 0 210 190" fill="none" xmlns="http://www.w3.org/2000/svg">
<path fill-rule="evenodd" clip-rule="evenodd" d="M83.2597 21.3834C58.8505 25.4244 36.4565 38.6064 26.2853 63.601C17.8804 84.2553 17.5004 106.99 27.6088 127.224C37.0373 146.097 55.0994 157.996 74.2426 163.9C109.589 174.803 150.812 163.845 172.593 132.153C173.688 130.56 173.284 128.381 171.691 127.286C170.098 126.191 167.919 126.595 166.824 128.188C147.017 157.008 109.153 167.343 76.3058 157.211C58.3765 151.681 42.1951 140.758 33.8709 124.096C24.7838 105.906 25.0139 85.2969 32.769 66.2395C41.7781 44.1007 61.6755 32.052 84.403 28.2894C107.191 24.5169 132.35 29.1932 150.903 40.0546C169.799 51.1172 179.449 70.2366 182.244 92.152C183.352 100.844 183.443 109.185 181.138 117.263C178.124 127.822 173.306 134.378 165.159 141.855C163.735 143.162 163.641 145.376 164.948 146.8C166.255 148.225 168.469 148.319 169.893 147.012C178.721 138.91 184.412 131.297 187.869 119.184C190.539 109.826 190.356 100.425 189.188 91.2664C186.205 67.8764 175.731 46.4782 154.44 34.0137C134.431 22.2998 107.608 17.3525 83.2597 21.3834Z" fill="black"/>
<path fill-rule="evenodd" clip-rule="evenodd" d="M80.6129 57C81.8693 57 82.8879 58.0186 82.8879 59.275C82.8879 62.2062 82.136 64.7328 80.4952 66.7745C78.878 68.7869 76.5749 70.1063 73.8746 70.9839C71.2417 71.8396 68.1814 72.3838 65.0731 71.5658C63.3215 71.1049 61.8444 70.5752 60.6561 69.4663C59.51 68.3967 58.8515 66.9781 58.1864 65.4352C57.6891 64.2813 58.2212 62.9428 59.3751 62.4455C60.5289 61.9481 61.8674 62.4803 62.3648 63.6341C63.0632 65.2544 63.4038 65.8069 63.7605 66.1398C64.0751 66.4334 64.6045 66.7376 66.2311 67.1656C68.1365 67.6671 70.223 67.3864 72.4683 66.6567C74.6472 65.9485 76.0648 65.0239 76.9486 63.9243C77.8086 62.8541 78.3379 61.4008 78.3379 59.275C78.3379 58.0186 79.3564 57 80.6129 57Z" fill="black"/>
<path fill-rule="evenodd" clip-rule="evenodd" d="M131.376 54.0232C132.62 54.2008 133.484 55.3532 133.307 56.597C132.992 58.7986 132.222 61.2232 130.75 63.1548C129.223 65.1587 126.933 66.6151 123.866 66.6151C118.354 66.6151 115.093 62.2915 113.253 58.7197C112.678 57.6028 113.117 56.2308 114.234 55.6554C115.351 55.08 116.722 55.5191 117.298 56.636C118.996 59.9315 121.104 62.0651 123.866 62.0651C125.307 62.0651 126.331 61.4465 127.131 60.3967C127.987 59.2746 128.558 57.6668 128.802 55.9536C128.98 54.7097 130.132 53.8455 131.376 54.0232Z" fill="black"/>
<path fill-rule="evenodd" clip-rule="evenodd" d="M119.965 112.005C118.705 113.919 117.54 116.273 117.318 116.773C116.558 118.483 115.359 120.586 113.345 121.497C112.209 122.011 110.962 122.078 109.731 121.679C108.574 121.304 107.552 120.56 106.642 119.65C105.648 118.656 104.703 117.478 103.901 116.223C103.576 117.024 103.286 117.815 102.981 118.648C102.719 119.363 102.446 120.109 102.129 120.918C101.652 122.136 100.831 123.191 99.5799 123.758C98.3821 124.301 97.1813 124.219 96.2687 123.999C94.5376 123.582 92.929 122.447 92.0062 121.741C90.8128 120.829 89.6919 119.578 88.7689 118.549C88.568 118.325 88.3765 118.111 88.1957 117.913C87.6993 117.372 87.2528 116.913 86.8365 116.535C86.5612 117.1 86.2656 117.775 85.9687 118.513C85.4882 119.706 85.0435 120.965 84.7179 122.004C84.5548 122.523 84.4279 122.968 84.3425 123.308C84.2655 123.615 84.2474 123.741 84.2453 123.741C84.2447 123.741 84.2456 123.728 84.2468 123.704C84.1744 125.152 82.9419 126.267 81.494 126.195C80.046 126.122 78.9309 124.89 79.0033 123.442C79.0268 122.972 79.1489 122.435 79.2503 122.031C79.3679 121.562 79.5258 121.015 79.7085 120.432C80.0744 119.266 80.5653 117.877 81.0985 116.552C81.6221 115.252 82.2273 113.91 82.8329 112.895C83.1211 112.411 83.5052 111.836 83.9827 111.379C84.2646 111.11 85.6606 109.849 87.463 110.669C89.4008 111.549 90.9166 113.111 92.067 114.367C92.3397 114.665 92.5933 114.947 92.8329 115.213C93.7305 116.209 94.4308 116.986 95.1953 117.571C95.5971 117.878 96.0333 118.185 96.466 118.436C96.8045 118.632 97.0865 118.762 97.3053 118.838C97.5138 118.299 97.7318 117.706 97.9589 117.089C98.4198 115.837 98.9177 114.485 99.4471 113.274L99.4468 113.275C99.4467 113.275 99.4521 113.263 99.4627 113.234C99.4745 113.202 99.4897 113.158 99.5086 113.1C99.5474 112.982 99.5912 112.837 99.6453 112.654C99.6623 112.597 99.6804 112.535 99.6995 112.47C99.793 112.151 99.9097 111.753 100.037 111.369C100.19 110.91 100.395 110.353 100.671 109.833C100.912 109.38 101.391 108.591 102.255 108.083C103.447 107.382 104.597 107.786 105.151 108.129C105.636 108.429 105.942 108.813 106.081 108.999C106.394 109.417 106.637 109.904 106.791 110.234C106.964 110.603 107.114 110.972 107.221 111.243C107.373 111.631 107.372 111.638 107.367 111.627C108.038 113.143 109.152 114.735 110.354 115.938C110.81 116.394 111.116 116.58 111.267 116.651C111.34 116.59 111.459 116.474 111.614 116.268C111.892 115.901 112.199 115.365 112.521 114.641C112.833 113.939 114.13 111.32 115.581 109.118C116.277 108.06 117.164 106.854 118.12 106.063C118.569 105.691 119.359 105.13 120.4 105.019C120.977 104.958 121.613 105.039 122.223 105.342C122.819 105.638 123.244 106.073 123.536 106.498C124.14 107.377 124.757 108.187 125.421 109.058C125.863 109.638 126.326 110.245 126.82 110.917C127.97 112.485 129.152 114.244 129.982 116.182C130.553 117.515 129.936 119.058 128.603 119.629C127.271 120.2 125.728 119.583 125.156 118.25C124.566 116.873 123.669 115.499 122.586 114.022C122.219 113.522 121.806 112.979 121.379 112.418C121.087 112.032 120.787 111.638 120.491 111.244C120.328 111.468 120.152 111.722 119.965 112.005ZM121.538 110.055C121.538 110.056 121.528 110.063 121.508 110.075C121.528 110.06 121.538 110.054 121.538 110.055ZM97.6355 118.918C97.6356 118.918 97.6334 118.918 97.6288 118.918C97.6332 118.918 97.6355 118.918 97.6355 118.918ZM105.329 112.256C105.342 112.234 105.349 112.225 105.35 112.226C105.35 112.226 105.343 112.238 105.329 112.256Z" fill="black"/>
</svg>
