<svg width="420" height="270" viewBox="0 0 420 270" fill="none" xmlns="http://www.w3.org/2000/svg">
<path d="M255.337 227.799C256.782 227.478 259.019 224.728 260.055 223.841C267.204 217.713 274.932 212.17 282.258 206.246C305.936 187.097 328.774 166.933 352.448 147.768" stroke="black" stroke-width="7" stroke-linecap="round"/>
<path d="M351.939 149.657C352.928 148.385 350.753 144.02 350.797 142.107C350.885 138.205 353.278 134.612 355.936 131.954C361.919 125.971 370.784 132.044 370.784 139.378" stroke="black" stroke-width="7" stroke-linecap="round"/>
<path d="M373.068 140.52C379.7 137.03 392.928 134.134 397.878 142.234C403.691 151.745 394.4 156.973 386.203 158.795" stroke="black" stroke-width="7" stroke-linecap="round"/>
<path d="M387.917 161.65C395.012 158.311 404.611 167.269 401.844 174.404C397.987 184.352 380.731 182.904 372.498 181.637" stroke="black" stroke-width="7" stroke-linecap="round"/>
<path d="M169.195 249.024C168.684 247.489 164.607 247.35 163.421 247.057C157.733 245.655 152.115 243.635 146.543 241.822C121.9 233.806 96.8264 227.154 72.1128 219.328" stroke="black" stroke-width="7" stroke-linecap="round"/>
<path d="M70.9707 220.47C72.3275 218.944 71.5418 214.393 71.5418 212.475C71.5418 207.214 70.7127 201.905 67.4808 197.596C63.9717 192.917 60.421 192.751 56.7573 197.913C52.9044 203.342 51.2534 210.551 52.6963 217.044" stroke="black" stroke-width="7" stroke-linecap="round"/>
<path d="M51.5541 219.899C48.5662 219.548 45.535 213.88 43.559 211.904C38.3501 206.695 31.6745 204.268 24.4281 206.257C17.2907 208.216 13.1714 212.858 13.2921 220.344C13.3857 226.145 17.237 232 23.0004 233.478C24.6512 233.902 26.4355 234.176 28.1401 234.176C28.6712 234.176 30.1049 233.391 28.9649 233.066C26.3178 232.309 21.617 232.725 19.0029 233.32C13.5028 234.57 8.97038 238.163 8.27939 244.075C6.81649 256.591 29.6455 254.524 36.1351 254.164" stroke="black" stroke-width="7" stroke-linecap="round"/>
<path d="M187.291 46.082C188.225 46.1625 189.002 46.5465 189.586 47.0215C190.616 47.8588 191.122 49.0298 191.405 49.8467C195.399 61.3878 195.474 75.4522 195.474 86.7031C195.474 88.0287 194.737 89.1823 193.651 89.7764C194.024 90.122 194.327 90.5548 194.526 91.0596C195.234 92.858 194.35 94.8901 192.552 95.5986C183.57 99.1371 174.752 103.078 165.877 107.079C165.18 107.394 164.481 107.708 163.782 108.023C155.618 111.707 147.389 115.421 139.026 118.842C137.517 119.459 135.828 118.946 134.897 117.697C134.283 117.237 133.816 116.575 133.61 115.781C133.592 115.754 133.562 115.712 133.515 115.653C133.346 115.444 133.07 115.17 132.655 114.823C132.247 114.483 131.802 114.151 131.297 113.773L131.251 113.739C130.792 113.396 130.217 112.967 129.737 112.54C125.202 108.51 120.699 102.854 117.734 97.582C117.525 97.2121 117.101 96.6401 116.389 95.7598C116.22 95.5514 116.036 95.326 115.842 95.0889C115.302 94.4295 114.687 93.678 114.124 92.9395C113.352 91.9255 112.526 90.7432 111.917 89.501C111.329 88.3021 110.755 86.6742 110.965 84.8848C111.14 83.3954 112.121 82.4108 113.087 81.96C113.853 81.6027 114.567 81.58 114.898 81.582C115.619 81.5865 116.339 81.7514 116.837 81.8828C117.93 82.171 119.26 82.6618 120.473 83.1436C121.719 83.6382 122.974 84.1776 123.96 84.6104C124.455 84.8274 124.887 85.0198 125.217 85.167C125.384 85.2413 125.52 85.3026 125.628 85.3506C125.682 85.3744 125.726 85.3934 125.76 85.4082L125.8 85.4258L125.811 85.4307C125.812 85.4314 125.814 85.4314 125.815 85.4316C131.505 87.8098 137.407 90.1308 143.198 92.2217C143.943 92.4909 144.719 92.8235 145.408 93.1182C145.471 93.1448 145.532 93.1713 145.593 93.1973C146.368 93.5283 147.07 93.8225 147.757 94.0635C148.488 94.3199 149.08 94.4689 149.564 94.5361C149.605 94.277 149.643 93.9691 149.672 93.6113C149.779 92.3122 149.749 91.0422 149.725 90.0146C149.716 89.6305 149.707 89.2798 149.707 88.9746C149.707 85.8926 149.861 82.8482 150.024 79.8906C150.04 79.5894 150.057 79.2884 150.073 78.9893C150.221 76.3234 150.365 73.7322 150.413 71.1318C150.43 70.2179 150.527 68.3016 150.957 66.4619C151.17 65.5541 151.511 64.4549 152.098 63.4658C152.673 62.4972 153.765 61.1829 155.62 60.7705C157.603 60.3301 159.214 61.2519 160.045 61.8525C160.965 62.5174 161.749 63.3804 162.348 64.1182C163.285 65.2729 164.2 66.697 164.642 67.3848C164.747 67.5483 164.825 67.6705 164.87 67.7373C166.697 70.4159 168.39 72.1324 169.644 72.6572C170.098 72.8473 170.292 72.7985 170.445 72.7363C170.699 72.6323 171.359 72.2328 172.256 70.8145C174.683 66.9773 176.474 62.9994 178.412 58.6924C178.822 57.7832 179.237 56.8593 179.667 55.9189C179.655 55.9465 179.656 55.94 179.681 55.8721C179.706 55.8018 179.756 55.6657 179.836 55.4336C179.865 55.3512 179.896 55.2612 179.929 55.165C180.041 54.8403 180.178 54.4435 180.327 54.0234C180.711 52.9456 181.237 51.5464 181.839 50.3105C182.139 49.6953 182.502 49.0298 182.925 48.4326C183.291 47.9165 183.967 47.0635 185.009 46.5352C185.59 46.2405 186.375 46.0031 187.291 46.082ZM186.392 57.8945C186.29 58.1859 186.156 58.5607 186.033 58.8291C185.642 59.6862 185.251 60.5547 184.858 61.4307C182.915 65.7516 180.888 70.2615 178.172 74.5557C176.824 76.6881 175.167 78.3679 173.094 79.2158C170.919 80.1053 168.775 79.8818 166.943 79.1152C163.623 77.7263 160.943 74.4027 159.087 71.6807C158.914 71.4271 158.736 71.1495 158.546 70.8555C158.247 70.3907 157.92 69.8846 157.547 69.3643C157.455 70.1098 157.42 70.8141 157.411 71.2617C157.361 73.9992 157.21 76.7224 157.064 79.3701C157.047 79.6724 157.03 79.9741 157.014 80.2744C156.851 83.2318 156.707 86.1046 156.707 88.9746C156.707 89.0815 156.712 89.263 156.718 89.502C156.743 90.4876 156.791 92.451 156.648 94.1875C156.558 95.2794 156.375 96.5987 155.944 97.7744C155.575 98.7785 154.592 100.828 152.204 101.358C149.668 101.922 147.243 101.301 145.441 100.669C144.508 100.342 143.611 99.962 142.845 99.6348L142.704 99.5752C141.962 99.2581 141.367 99.0032 140.82 98.8057C134.906 96.6702 128.896 94.3064 123.115 91.8906C122.912 91.8057 122.591 91.6626 122.178 91.4785C122.056 91.424 121.926 91.3659 121.788 91.3047C121.802 91.3219 121.816 91.3391 121.83 91.3564C122.507 92.193 123.298 93.1945 123.835 94.1504C126.435 98.7717 130.454 103.813 134.387 107.309C134.611 107.508 134.942 107.758 135.468 108.151L135.539 108.205C136.005 108.552 136.584 108.986 137.142 109.451C137.646 109.872 138.346 110.487 138.982 111.283C146.332 108.215 153.6 104.938 160.922 101.635C161.614 101.323 162.307 101.01 163 100.697C171.737 96.7582 180.559 92.8142 189.573 89.249C188.897 88.6109 188.474 87.7065 188.474 86.7031C188.474 77.2826 188.379 66.9512 186.392 57.8945ZM102.305 64.4004C103.923 64.0694 106.453 64.2176 108.53 64.7363C109.598 65.0031 110.872 65.4446 111.96 66.208C113.068 66.985 114.416 68.4384 114.416 70.6484C114.416 75.8599 110.031 78.3887 106.933 79.501C103.59 80.7011 99.8084 81.04 97.5247 81.04C95.5917 81.04 94.0247 79.473 94.0247 77.54C94.0247 77.5322 94.0246 77.5244 94.0247 77.5166C93.2852 77.5223 92.5379 77.2943 91.9006 76.8164C90.3542 75.6566 90.0406 73.4624 91.2004 71.916C93.7583 68.5057 97.4088 65.402 102.305 64.4004ZM104.045 71.2295C103.823 71.2389 103.716 71.2564 103.708 71.2578L103.361 71.3369C101.635 71.762 100.07 72.6907 98.6702 74.0068C100.417 73.9091 102.682 73.5891 104.568 72.9121C105.883 72.4399 106.598 71.9695 106.983 71.5664C106.935 71.5535 106.885 71.5412 106.833 71.5283C106.209 71.3725 105.503 71.2749 104.859 71.2393C104.541 71.2217 104.265 71.2202 104.045 71.2295ZM139.052 41.167C141.705 37.3354 146.125 37.6204 148.907 38.5195C151.753 39.4393 154.655 41.446 156.152 43.7734C157.764 46.2816 158.054 48.9755 157.225 51.377C156.439 53.6512 154.762 55.3562 152.952 56.3594C151.49 57.1699 149.612 57.6964 147.708 57.4199C146.563 57.9838 145.15 57.8983 144.059 57.0801C142.229 55.7077 140.133 53.4653 138.836 50.8682C137.553 48.2977 136.705 44.5568 139.052 41.167ZM146.755 45.1807C145.985 44.9318 145.437 44.9122 145.135 44.9648C144.926 45.0013 144.878 45.0496 144.808 45.1514C144.578 45.4836 144.393 46.0968 144.897 47.3008C144.937 47.2942 144.978 47.2884 145.02 47.2832C146.938 47.0434 148.687 48.4042 148.927 50.3223C148.934 50.3785 148.942 50.4277 148.95 50.4707C149.093 50.4437 149.299 50.3819 149.558 50.2383C150.111 49.9314 150.475 49.478 150.609 49.0928C150.698 48.8345 150.783 48.3672 150.263 47.5586C149.818 46.8669 148.402 45.713 146.755 45.1807ZM181.21 21.1094C183.6 19.0783 186.455 17.9039 189.462 18.6025C192.352 19.274 194.376 21.4538 195.718 23.8018C198.716 29.0484 196.314 34.2224 192.785 36.8604C191.276 37.9888 189.342 38.809 187.301 39.0273C187.232 39.1542 187.155 39.278 187.069 39.3984C185.945 40.9713 183.76 41.3354 182.187 40.2119C179.145 38.0389 177.001 34.8681 176.668 31.2246C176.327 27.4896 177.945 23.8846 181.21 21.1094ZM187.877 25.4209C187.775 25.3973 187.128 25.2666 185.743 26.4434C183.937 27.9789 183.536 29.4606 183.639 30.5879C183.642 30.6245 183.647 30.6612 183.652 30.6982C183.987 30.8634 184.302 31.086 184.581 31.3652C185.481 32.2652 187.037 32.4176 188.594 31.2539C190.057 30.16 190.448 28.689 189.64 27.2744C188.784 25.777 188.095 25.4715 187.877 25.4209Z" fill="black"/>
<path d="M141.114 145.454C133.238 159.434 127.277 173.911 128.63 190.336C129.939 206.234 138.497 220.315 152.173 228.773C183.925 248.409 232.227 235.935 253.065 205.874C262.999 191.543 267.226 171.197 261.139 154.478C253.37 133.136 234.093 120.206 211.745 119.603C189.2 118.996 165.105 124.688 148.374 140.704C141.157 147.613 134.8 155.185 131.445 164.689C129.178 171.113 129.512 177.827 129.512 184.535" stroke="black" stroke-width="7" stroke-linecap="round"/>
<path d="M191.187 153.392C192.77 156.558 193.291 160.043 194.851 163.163" stroke="black" stroke-width="7" stroke-linecap="round"/>
<path d="M230.879 146.065C233.292 148.78 233.548 153.603 233.932 157.056" stroke="black" stroke-width="7" stroke-linecap="round"/>
<path d="M213.17 197.969C224.926 203.008 236.909 198.389 243.702 188.199" stroke="black" stroke-width="7" stroke-linecap="round"/>
</svg>
